<?xml version="1.0" standalone="no"?>
<!DOCTYPE svg PUBLIC "-//W3C//DTD SVG 20010904//EN"
 "http://www.w3.org/TR/2001/REC-SVG-20010904/DTD/svg10.dtd">
<svg version="1.0" xmlns="http://www.w3.org/2000/svg"
 width="260.000000pt" height="260.000000pt" viewBox="0 0 260.000000 260.000000"
 preserveAspectRatio="xMidYMid meet">
<metadata>
Created by potrace 1.11, written by Peter Selinger 2001-2013
</metadata>
<g transform="translate(0.000000,260.000000) scale(0.100000,-0.100000)"
fill="#000000" stroke="none">
<path d="M1635 2302 c-41 -4 -552 -127 -633 -152 -77 -24 -126 -51 -238 -131
-45 -33 -119 -75 -165 -96 -171 -75 -205 -116 -159 -191 16 -26 45 -45 137
-88 100 -47 123 -54 155 -49 21 4 38 4 38 1 0 -4 -11 -28 -24 -54 -13 -26 -34
-78 -47 -117 -21 -65 -23 -87 -24 -295 l0 -225 -52 -112 c-29 -61 -53 -115
-53 -120 -1 -4 -25 -28 -55 -52 -30 -25 -77 -66 -105 -93 -68 -65 -67 -86 5
-153 50 -46 59 -65 33 -65 -5 0 -6 4 -3 10 4 6 -1 7 -11 3 -12 -5 -14 -8 -5
-11 7 -2 21 -18 32 -36 10 -17 19 -24 19 -16 0 12 2 13 9 1 6 -9 8 -4 7 17 -1
17 -5 34 -9 39 -5 4 -5 0 -2 -8 4 -10 0 -16 -10 -16 -19 0 -19 11 1 28 14 11
18 11 29 -4 8 -11 19 -15 30 -11 15 6 15 4 4 -14 -8 -13 -16 -17 -20 -11 -4 6
-7 -1 -7 -16 1 -23 2 -25 10 -12 12 22 20 21 47 -4 l23 -22 -7 22 c-6 20 -5
22 13 12 11 -6 22 -16 24 -23 3 -7 7 -2 10 10 4 12 2 20 -3 17 -5 -3 -17 -1
-28 5 -14 7 -22 7 -26 0 -5 -8 -11 -7 -21 1 -20 16 3 31 27 19 9 -5 19 -6 23
-3 3 3 6 1 6 -6 0 -7 4 -9 10 -6 6 3 15 3 22 -1 12 -7 45 -13 81 -15 15 0 16
-3 7 -15 -13 -15 -35 -20 -26 -5 9 13 -19 21 -35 9 -12 -8 -12 -9 1 -5 8 2 20
-3 26 -12 10 -13 14 -13 35 0 13 8 31 14 39 13 8 0 26 -2 40 -3 20 -1 22 -3
10 -11 -9 -6 -10 -10 -3 -10 6 0 15 5 18 10 4 6 12 7 18 3 21 -13 137 -18 407
-18 285 0 362 5 398 24 12 6 22 9 22 6 0 -3 13 1 30 10 36 19 50 20 25 2 -14
-11 -15 -16 -5 -22 8 -5 11 -4 7 2 -12 19 25 24 45 6 18 -16 19 -16 12 2 -5
13 -4 16 4 11 8 -5 17 4 26 25 8 18 16 27 20 21 4 -6 0 -22 -9 -35 -14 -22
-14 -24 5 -22 11 1 23 5 27 9 5 4 3 7 -2 6 -22 -5 -26 1 -12 15 9 8 17 20 20
27 2 7 8 10 12 6 4 -4 3 -13 -3 -21 -7 -8 -7 -18 -2 -27 10 -16 11 -14 15 38
2 32 2 32 -21 17 -13 -9 -24 -12 -24 -7 0 13 42 29 63 24 9 -2 17 -8 17 -13 0
-6 -4 -8 -8 -5 -5 3 -8 -8 -8 -23 0 -32 26 -39 34 -9 2 10 8 15 13 12 5 -3 6
-11 3 -17 -4 -7 -3 -9 1 -5 11 11 15 77 5 83 -5 3 -15 -1 -23 -9 -8 -8 -19
-11 -26 -6 -9 5 -10 10 -2 14 6 4 11 4 11 0 0 -4 6 0 13 9 11 16 14 16 33 3
16 -11 21 -24 18 -46 -2 -16 1 -30 7 -30 6 0 7 5 4 10 -6 10 7 14 33 11 9 -2
12 7 9 28 -3 16 -1 31 3 33 4 2 1 9 -7 17 -12 11 -14 10 -11 -4 2 -10 -2 -20
-8 -22 -7 -2 -10 6 -8 22 2 22 0 24 -12 14 -16 -13 -19 -23 -4 -14 6 3 10 2
10 -3 0 -16 -13 -22 -26 -11 -11 9 -2 21 44 56 115 89 199 208 227 323 13 53
16 100 13 197 -6 206 -34 250 -283 434 l-165 121 112 112 c274 271 315 428
142 546 -56 39 -163 92 -230 114 -56 18 -163 33 -209 28z m-50 -493 c50 -20
60 -28 60 -48 0 -22 -18 -33 -178 -107 l-178 -81 -110 74 c-60 41 -109 76
-109 78 0 5 205 85 260 101 65 19 183 11 255 -17z m9 -538 c83 -41 152 -107
161 -154 12 -61 -31 -136 -138 -242 -86 -85 -200 -176 -182 -144 4 8 -2 4 -14
-9 -12 -12 -26 -20 -32 -17 -5 4 -9 2 -9 -2 0 -10 -27 -15 -86 -16 -45 -1
-104 19 -104 35 0 7 5 7 13 0 8 -7 18 -7 27 -2 19 12 30 12 30 1 0 -5 -8 -12
-17 -14 -16 -4 -16 -5 -1 -6 21 -1 34 17 20 31 -7 7 -16 6 -29 -1 -14 -7 -23
-7 -31 1 -8 8 -13 7 -18 -5 -3 -9 -10 -14 -15 -11 -5 3 -7 9 -5 13 3 4 -1 8
-9 8 -8 0 -12 -4 -10 -8 3 -4 -4 -5 -15 -2 -11 3 -20 6 -20 7 0 1 16 49 35
106 33 98 35 112 35 234 0 72 4 136 8 142 4 6 52 27 107 46 55 20 107 39 115
42 36 13 121 -2 184 -33z m443 -931 c1 -9 -6 -16 -17 -16 -11 0 -18 7 -17 16
1 20 33 20 34 0z m-70 -10 c-1 -11 -9 -22 -19 -26 -11 -3 -15 -11 -11 -22 5
-13 3 -14 -7 -5 -10 9 -8 18 9 42 26 36 30 38 28 11z m-153 -53 c-6 -16 -41
-19 -50 -5 -4 7 -2 8 4 4 7 -4 12 -2 12 4 0 6 5 8 10 5 6 -3 10 -1 10 5 0 6 4
9 10 5 5 -3 7 -11 4 -18z"/>
<path d="M1303 742 c-8 -5 -6 -14 8 -32 17 -21 19 -22 10 -3 -16 31 -13 41 4
19 16 -21 19 -18 9 8 -7 18 -13 19 -31 8z"/>
<path d="M1353 722 c0 -15 2 -21 4 -14 3 6 9 10 14 6 14 -8 11 6 -5 21 -11 12
-13 10 -13 -13z"/>
<path d="M1396 735 c-9 -26 -7 -32 5 -12 6 10 9 21 6 23 -2 3 -7 -2 -11 -11z"/>
<path d="M1286 707 c3 -10 9 -15 12 -12 3 3 0 11 -7 18 -10 9 -11 8 -5 -6z"/>
<path d="M429 281 c6 -10 8 -20 6 -23 -3 -3 1 -5 9 -5 12 0 12 4 -1 24 -18 28
-28 31 -14 4z"/>
<path d="M400 280 c0 -5 5 -10 11 -10 5 0 7 5 4 10 -3 6 -8 10 -11 10 -2 0 -4
-4 -4 -10z"/>
<path d="M530 246 c0 -2 7 -7 16 -10 8 -3 12 -2 9 4 -6 10 -25 14 -25 6z"/>
<path d="M756 228 c3 -5 10 -6 15 -3 13 9 11 12 -6 12 -8 0 -12 -4 -9 -9z"/>
<path d="M1666 232 c-3 -5 1 -9 9 -9 8 0 12 4 9 9 -3 4 -7 8 -9 8 -2 0 -6 -4
-9 -8z"/>
</g>
</svg>
